<?xml version="1.0" encoding="utf-8"?>
<!-- Generator: Adobe Illustrator 23.0.1, SVG Export Plug-In . SVG Version: 6.00 Build 0)  -->
<svg version="1.1" id="Layer_1" xmlns="http://www.w3.org/2000/svg" xmlns:xlink="http://www.w3.org/1999/xlink" x="0px" y="0px"
	 viewBox="0 0 13 15" enable-background="new 0 0 13 15" xml:space="preserve">
<g>
	<g>
		<path fill-rule="evenodd" clip-rule="evenodd" fill="#0078A9" d="M12.64,9.316c0,0.305-0.198,0.449-0.544,0.449h-0.662V9.46h0.662
			c0.064,0,0.112-0.011,0.133-0.032c0.021-0.021,0.043-0.054,0.043-0.091c0-0.043-0.021-0.085-0.043-0.102
			c-0.021-0.021-0.059-0.032-0.123-0.032c-0.315-0.011-0.715,0.011-0.715-0.444c0-0.203,0.133-0.428,0.491-0.428h0.683v0.305h-0.63
			c-0.064,0-0.107,0-0.133,0.021C11.77,8.69,11.749,8.722,11.749,8.77c0,0.054,0.032,0.086,0.069,0.102
			c0.043,0.011,0.086,0.021,0.134,0.021h0.187c0.192,0,0.315,0.043,0.4,0.112C12.597,9.08,12.64,9.171,12.64,9.316 M11.199,9.006
			c-0.085-0.07-0.208-0.112-0.4-0.112h-0.187c-0.048,0-0.091-0.011-0.133-0.021c-0.037-0.016-0.069-0.048-0.069-0.102
			c0-0.048,0.011-0.08,0.053-0.112c0.027-0.021,0.069-0.021,0.133-0.021h0.63V8.332h-0.683c-0.368,0-0.491,0.225-0.491,0.428
			c0,0.454,0.4,0.433,0.715,0.444c0.064,0,0.101,0.011,0.123,0.032c0.021,0.016,0.043,0.059,0.043,0.102
			c0,0.037-0.022,0.07-0.043,0.091C10.857,9.449,10.82,9.46,10.756,9.46h-0.662v0.305h0.662c0.347,0,0.544-0.144,0.544-0.449
			C11.3,9.171,11.257,9.08,11.199,9.006 M9.886,9.471H9.08V9.182h0.79V8.893H9.08V8.631h0.806v-0.3H8.744v1.433h1.142V9.471z
			 M8.376,8.401c-0.112-0.059-0.245-0.07-0.422-0.07H7.17v1.433h0.347V9.241h0.368c0.123,0,0.192,0.011,0.245,0.064
			c0.059,0.069,0.059,0.192,0.059,0.289v0.171h0.342V9.487c0-0.128-0.011-0.192-0.053-0.262C8.445,9.182,8.387,9.128,8.301,9.102
			c0.096-0.032,0.245-0.155,0.245-0.38C8.547,8.556,8.488,8.465,8.376,8.401 M6.433,8.332H5.339L4.896,8.802L4.48,8.332H3.098v1.433
			h1.361l0.438-0.471l0.422,0.471H5.98V9.284h0.432c0.294,0,0.592-0.08,0.592-0.481C7.004,8.412,6.7,8.332,6.433,8.332 M8.098,8.925
			C8.045,8.947,7.997,8.947,7.933,8.947L7.517,8.957V8.631h0.416c0.064,0,0.123,0,0.165,0.027c0.043,0.022,0.069,0.064,0.069,0.123
			C8.168,8.845,8.141,8.893,8.098,8.925 M6.433,8.995H5.98V8.631h0.454c0.123,0,0.203,0.048,0.203,0.171
			C6.636,8.925,6.556,8.995,6.433,8.995 M5.115,9.048l0.528-0.561v1.155L5.115,9.048z M4.283,9.471H3.434V9.182h0.758V8.893H3.434
			V8.631h0.859l0.379,0.417L4.283,9.471z M11.69,7.294h-0.491l-0.646-1.075v1.075H9.859L9.726,6.979H9.011L8.877,7.294h-0.4
			c-0.165,0-0.379-0.037-0.502-0.16C7.863,7.011,7.799,6.845,7.799,6.588c0.005-0.214,0.032-0.406,0.187-0.562
			c0.101-0.112,0.288-0.166,0.523-0.166h0.325v0.31H8.509c-0.123,0-0.197,0.021-0.267,0.08C8.178,6.315,8.152,6.428,8.152,6.578
			c0,0.155,0.027,0.267,0.091,0.342c0.048,0.048,0.144,0.07,0.235,0.07h0.155l0.491-1.128H9.63l0.576,1.353V5.861h0.528l0.603,0.995
			V5.861h0.352V7.294z M7.629,5.861H7.282v1.433h0.347V5.861z M6.903,5.925C6.791,5.861,6.668,5.861,6.492,5.861H5.708v1.433h0.336
			V6.775h0.368c0.123,0,0.203,0.011,0.256,0.059c0.059,0.075,0.048,0.198,0.048,0.278v0.182h0.352V7.011
			c0-0.123-0.011-0.187-0.064-0.257C6.972,6.711,6.914,6.663,6.839,6.631c0.096-0.043,0.246-0.155,0.246-0.38
			C7.085,6.086,7.015,5.995,6.903,5.925 M5.462,7H4.661V6.711h0.79V6.417h-0.79V6.16h0.801v-0.3H4.315v1.433h1.147V7z M4.058,5.861
			h-0.56L3.076,6.834L2.628,5.861h-0.55v1.353L1.492,5.861H0.985L0.371,7.294h0.368l0.128-0.315h0.72l0.128,0.315h0.699V6.171
			l0.502,1.123H3.21l0.502-1.123v1.123h0.347V5.861z M9.603,6.674L9.368,6.107L9.134,6.674H9.603z M6.636,6.444
			C6.583,6.476,6.535,6.476,6.465,6.476H6.044V6.16h0.421c0.059,0,0.128,0,0.171,0.021C6.679,6.209,6.7,6.251,6.7,6.315
			C6.7,6.374,6.679,6.428,6.636,6.444 M0.99,6.674l0.24-0.567l0.235,0.567H0.99z M12.554,1.363H0.36v5.166l0.416-0.952h0.891
			L1.79,5.813V5.577h1.041l0.235,0.508l0.229-0.508h3.319c0.155,0,0.288,0.027,0.39,0.112V5.577h0.913V5.69
			c0.15-0.086,0.347-0.112,0.571-0.112h1.318l0.123,0.235V5.577H10.9l0.144,0.235V5.577h0.95v2.006h-0.96l-0.187-0.305v0.305H9.651
			L9.518,7.257H9.224L9.091,7.583H8.466c-0.245,0-0.427-0.059-0.55-0.123v0.123H6.433v-0.46c0-0.064-0.011-0.075-0.053-0.075H6.332
			v0.535H3.466V7.326L3.365,7.583H2.762L2.66,7.337v0.246H1.502L1.379,7.257H1.086L0.952,7.583H0.36v6.053h12.194V9.963
			c-0.128,0.059-0.315,0.091-0.496,0.091h-0.891V9.931c-0.102,0.08-0.288,0.123-0.459,0.123H7.906v-0.46
			c0-0.064-0.011-0.064-0.064-0.064H7.794v0.524H6.871V9.508c-0.155,0.075-0.326,0.075-0.48,0.075H6.289v0.471H5.163l-0.267-0.31
			l-0.294,0.31H2.794V8.043h1.841l0.262,0.31l0.288-0.31h1.238c0.144,0,0.379,0.021,0.48,0.123V8.043h1.105
			c0.112,0,0.325,0.021,0.47,0.123V8.043h1.665v0.123c0.096-0.08,0.267-0.123,0.422-0.123h0.929v0.123
			c0.102-0.069,0.245-0.123,0.432-0.123h0.63V1.363z"/>
	</g>
</g>
</svg>
