<svg id="Component_130_2" data-name="Component 130 – 2" xmlns="http://www.w3.org/2000/svg" width="40" height="40" viewBox="0 0 40 40">
  <g id="Rectangle_348" data-name="Rectangle 348" fill="#fff" stroke="#707070" stroke-width="1" opacity="0">
    <rect width="40" height="40" stroke="none"/>
    <rect x="0.5" y="0.5" width="39" height="39" fill="none"/>
  </g>
  <g id="close" transform="translate(-5.389 -4.778)" opacity="0">
    <g id="Group" transform="translate(13 24.021) rotate(-45)">
      <path id="Combined_Shape" data-name="Combined Shape" d="M8.5,8.5h0v0h0v0Z" fill="none" stroke="#221e20" stroke-linecap="round" stroke-linejoin="round" stroke-width="2" opacity="0.5"/>
    </g>
  </g>
  <g id="plus" transform="translate(-5.692 -5)" opacity="0">
    <g id="Group-2" data-name="Group" transform="translate(16 17)">
      <path id="Line_2" data-name="Line 2" d="M.692,1.5H17.327" transform="translate(0 7)" fill="none" stroke="#221e20" stroke-linecap="round" stroke-width="2"/>
      <path id="Line_2-2" data-name="Line 2" d="M0,.5H17" transform="translate(9) rotate(90)" fill="none" stroke="#221e20" stroke-linecap="round" stroke-width="2"/>
    </g>
  </g>
  <g id="Group_2633" data-name="Group 2633" transform="translate(-907.983 -297.521)">
    <g id="Background" transform="translate(907.962 297.5)">
      <circle id="Ellipse_292" data-name="Ellipse 292" cx="20" cy="20" r="20" transform="translate(0.022 0.022)" fill="#f8f8f8" opacity="0"/>
    </g>
    <g id="Icon" transform="translate(916.995 309.418)">
      <g id="Group_2635" data-name="Group 2635">
        <g id="Group_2633-2" data-name="Group 2633">
          <path id="Path_2509" data-name="Path 2509" d="M959.378,370.851a.831.831,0,0,1-.59-.244l-7.27-7.27a.834.834,0,0,1,0-1.18l7.27-7.27a.834.834,0,0,1,1.18,1.18l-6.68,6.68,6.68,6.68a.834.834,0,0,1-.59,1.424Z" transform="translate(-951.274 -354.643)" fill="#221e20"/>
        </g>
        <g id="Group_2634" data-name="Group 2634" transform="translate(0 7.27)">
          <path id="Path_2510" data-name="Path 2510" d="M972.418,391.168H952.109a.834.834,0,0,1,0-1.668h20.308a.834.834,0,0,1,0,1.668Z" transform="translate(-951.275 -389.5)" fill="#221e20"/>
        </g>
      </g>
    </g>
  </g>
</svg>
