<svg xmlns="http://www.w3.org/2000/svg" xmlns:xlink="http://www.w3.org/1999/xlink" width="103.77" height="20.225" viewBox="0 0 103.77 20.225">
  <defs>
    <clipPath id="clip-path">
      <rect id="Rectangle_1490" data-name="Rectangle 1490" width="103.77" height="20.225" fill="#d6001c"/>
    </clipPath>
  </defs>
  <g id="Group_4864" data-name="Group 4864" transform="translate(0 0)">
    <g id="Group_4863" data-name="Group 4863" transform="translate(0 0)" clip-path="url(#clip-path)">
      <path id="Path_3284" data-name="Path 3284" d="M119.916,5.343a7.446,7.446,0,0,0-7.412,6.848,7.432,7.432,0,0,0-14.838.352l.014-9.482s0-.544,0-.549V1.228s0-.349,0-.482V.9a.9.9,0,0,0-.9-.9H95.319a.9.9,0,0,0-.9.9V.73s-.008.534,0,.533l-.007,5.366-.3-.185A7.425,7.425,0,0,0,82.938,11.3,7.4,7.4,0,0,0,70.6,7.362a6.912,6.912,0,0,0-5.615-2.025,6.445,6.445,0,0,0-3.513,1.517V6.313a.772.772,0,0,0-.77-.771h-1.64a.79.79,0,0,0-.789.789v8.88h0v4.2a.772.772,0,0,0,.771.771h1.64a.79.79,0,0,0,.789-.789l.07-6.8a4,4,0,0,1,3.677-4.063A4.176,4.176,0,0,1,68.8,9.918a7.273,7.273,0,0,0-.587,2.8,7.423,7.423,0,0,0,6.606,7.452l.237.02.174.012c.215.014.437.022.678.022.087,0,.169,0,.259-.007A7.744,7.744,0,0,0,80.97,18.6a.517.517,0,0,0,.07-.045l.529-.477a.554.554,0,0,0-.121-.9l-2-1.1a.607.607,0,0,0-.7.05l-.336.215a4.667,4.667,0,0,1-2.266.642l-.186,0a6.128,6.128,0,0,1-1.116-.1,4.162,4.162,0,0,1-2.9-2.161l-.224-.542,11.206.005A7.431,7.431,0,0,0,97.66,12.9a7.434,7.434,0,0,0,14.844.475,7.437,7.437,0,1,0,7.412-8.031m-48.16,5.912.02-.047a4.17,4.17,0,0,1,7.738.01l.019.046Zm18.475,5.713a4.188,4.188,0,0,1-4.181-4.251A4.239,4.239,0,0,1,90.17,8.6a4.186,4.186,0,1,1,.061,8.372m14.865,0a4.186,4.186,0,1,1,4.182-4.186,4.189,4.189,0,0,1-4.182,4.186m14.82,0a4.186,4.186,0,1,1,4.182-4.186,4.189,4.189,0,0,1-4.182,4.186" transform="translate(-28.558 0)" fill="#d6001c"/>
      <path id="Path_3285" data-name="Path 3285" d="M22.275,10.478a7.445,7.445,0,0,0-7.42,6.976,7.439,7.439,0,1,0,0,.927,7.434,7.434,0,1,0,7.42-7.9M7.443,22.1a4.186,4.186,0,1,1,4.184-4.186A4.191,4.191,0,0,1,7.443,22.1m14.832,0a4.186,4.186,0,1,1,4.181-4.186A4.191,4.191,0,0,1,22.275,22.1" transform="translate(0 -5.135)" fill="#d6001c"/>
      <path id="Path_3286" data-name="Path 3286" d="M135.558,1.412v0" transform="translate(-66.435 -0.666)" fill="#d6001c"/>
      <path id="Path_3287" data-name="Path 3287" d="M195.609,3.133a2.7,2.7,0,1,0,2.7,2.7,2.7,2.7,0,0,0-2.7-2.7" transform="translate(-94.541 -1.535)" fill="#d6001c"/>
    </g>
  </g>
</svg>
