<svg xmlns="http://www.w3.org/2000/svg" width="40" height="40" viewBox="0 0 40 40">
  <g id="Group_5126" data-name="Group 5126" transform="translate(0 0)">
    <g id="Ellipse_292" data-name="Ellipse 292" transform="translate(0 0)" opacity="0">
      <circle id="Ellipse_463" data-name="Ellipse 463" cx="20" cy="20" r="20" transform="translate(0 0)" fill="#aaa"/>
    </g>
    <g id="Group_4539" data-name="Group 4539" transform="translate(9.645 9.957)">
      <path id="Path_3209" data-name="Path 3209" d="M278.536-1417.881h-.047a.833.833,0,0,1-.785-.879l.171-3.057a.7.7,0,0,0-.194-.527.706.706,0,0,0-.517-.223h-15.95a.707.707,0,0,0-.517.223.706.706,0,0,0-.194.528l.163,3.058a.833.833,0,0,1-.788.876.834.834,0,0,1-.876-.788l-.163-3.057a2.389,2.389,0,0,1,.649-1.764,2.389,2.389,0,0,1,1.727-.743h15.95a2.389,2.389,0,0,1,1.727.743,2.39,2.39,0,0,1,.649,1.765l-.171,3.059A.833.833,0,0,1,278.536-1417.881Z" transform="translate(-258.833 1424.234)" fill="#aaa"/>
    </g>
    <g id="Group_4540" data-name="Group 4540" transform="translate(11.277 14.644)">
      <path id="Path_3210" data-name="Path 3210" d="M281.222-1384.956H269.555a2.137,2.137,0,0,1-2.134-2.021l-.753-13.883a.833.833,0,0,1,.787-.877.833.833,0,0,1,.877.787l.753,13.884a.47.47,0,0,0,.47.445h11.667a.47.47,0,0,0,.47-.445l.746-13.883a.834.834,0,0,1,.877-.787.833.833,0,0,1,.787.877l-.746,13.884A2.137,2.137,0,0,1,281.222-1384.956Z" transform="translate(-266.667 1401.739)" fill="#aaa"/>
    </g>
    <g id="Group_4543" data-name="Group 4543" transform="translate(16.496 17.928)">
      <g id="Group_4541" data-name="Group 4541" transform="translate(0 0)">
        <path id="Path_3211" data-name="Path 3211" d="M292.87-1376.043a.833.833,0,0,1-.832-.8l-.323-8.267a.833.833,0,0,1,.8-.865.833.833,0,0,1,.865.8l.323,8.267a.833.833,0,0,1-.8.865Z" transform="translate(-291.714 1385.977)" fill="#aaa"/>
      </g>
      <g id="Group_4542" data-name="Group 4542" transform="translate(5.018 0)">
        <path id="Path_3212" data-name="Path 3212" d="M316.633-1376.043H316.6a.833.833,0,0,1-.8-.865l.323-8.267a.833.833,0,0,1,.865-.8.833.833,0,0,1,.8.865l-.323,8.267A.833.833,0,0,1,316.633-1376.043Z" transform="translate(-315.799 1385.977)" fill="#aaa"/>
      </g>
    </g>
    <g id="Group_4544" data-name="Group 4544" transform="translate(9.81 14.644)">
      <path id="Path_3213" data-name="Path 3213" d="M279.162-1400.071h-18.7a.833.833,0,0,1-.833-.833.833.833,0,0,1,.833-.833h18.7a.833.833,0,0,1,.833.833A.833.833,0,0,1,279.162-1400.071Z" transform="translate(-259.625 1401.738)" fill="#aaa"/>
    </g>
    <g id="Group_4545" data-name="Group 4545" transform="translate(15.472 6.645)">
      <path id="Path_3214" data-name="Path 3214" d="M295.025-1435.573a.833.833,0,0,1-.833-.833v-1.7a.358.358,0,0,0-.358-.358h-5.006a.358.358,0,0,0-.358.358v1.7a.833.833,0,0,1-.833.833.833.833,0,0,1-.833-.833v-1.7a2.026,2.026,0,0,1,2.024-2.024h5.006a2.027,2.027,0,0,1,2.024,2.024v1.7A.833.833,0,0,1,295.025-1435.573Z" transform="translate(-286.803 1440.135)" fill="#aaa"/>
    </g>
  </g>
</svg>
