<svg id="Component_160_1" data-name="Component 160 – 1" xmlns="http://www.w3.org/2000/svg" width="40" height="40" viewBox="0 0 40 40">
  <circle id="Ellipse_292" data-name="Ellipse 292" cx="20" cy="20" r="20" fill="#aaa" opacity="0"/>
  <g id="Group_2638" data-name="Group 2638" transform="translate(7.892 7.705)">
    <g id="Group_2636" data-name="Group 2636" transform="translate(2.029 3.358)">
      <path id="Path_2511" data-name="Path 2511" d="M57.7-455.869a.526.526,0,0,1,.312.1l8.1,5.939v10.549a.444.444,0,0,1-.444.444H49.73a.444.444,0,0,1-.444-.444v-10.549l8.1-5.939a.526.526,0,0,1,.312-.1m0-1.667a2.192,2.192,0,0,0-1.3.425l-8.224,6.029a1.322,1.322,0,0,0-.556,1.01h0v10.792a2.111,2.111,0,0,0,2.111,2.11H65.667a2.111,2.111,0,0,0,2.111-2.11v-10.792h0a1.322,1.322,0,0,0-.556-1.01L59-457.111a2.192,2.192,0,0,0-1.3-.425Z" transform="translate(-47.619 457.536)" fill="#aaa"/>
    </g>
    <g id="Group_2637" data-name="Group 2637">
      <path id="Path_2512" data-name="Path 2512" d="M61.261-464.341a.829.829,0,0,1-.492-.161l-9.739-7.14a1.759,1.759,0,0,0-2.088,0L39.2-464.5a.833.833,0,0,1-1.165-.179.833.833,0,0,1,.179-1.165l9.739-7.139a3.419,3.419,0,0,1,4.059,0l9.739,7.139a.833.833,0,0,1,.179,1.165A.832.832,0,0,1,61.261-464.341Z" transform="translate(-37.878 473.654)" fill="#aaa"/>
    </g>
  </g>
</svg>
