<svg id="more_black" xmlns="http://www.w3.org/2000/svg" width="40" height="40" viewBox="0 0 40 40">
  <circle id="Ellipse_292" data-name="Ellipse 292" cx="20" cy="20" r="20" fill="#aaa" opacity="0"/>
  <g id="Group_2654" data-name="Group 2654" transform="translate(8.625 12.516)">
    <g id="Group_2648" data-name="Group 2648" transform="translate(4.181)">
      <path id="Path_2518" data-name="Path 2518" d="M928.14-448.893H911.9a.833.833,0,0,1-.833-.833.833.833,0,0,1,.833-.833h16.24a.833.833,0,0,1,.833.833.833.833,0,0,1-.833.833Z" transform="translate(-911.071 450.56)" fill="#221e20"/>
    </g>
    <g id="Group_2649" data-name="Group 2649" transform="translate(4.181 6.65)">
      <path id="Path_2519" data-name="Path 2519" d="M928.14-416.971H911.9a.833.833,0,0,1-.833-.833.833.833,0,0,1,.833-.833h16.24a.833.833,0,0,1,.833.833A.833.833,0,0,1,928.14-416.971Z" transform="translate(-911.071 418.638)" fill="#221e20"/>
    </g>
    <g id="Group_2650" data-name="Group 2650" transform="translate(4.181 13.301)">
      <path id="Path_2520" data-name="Path 2520" d="M928.14-385.049H911.9a.833.833,0,0,1-.833-.833.833.833,0,0,1,.833-.833h16.24a.833.833,0,0,1,.833.833A.833.833,0,0,1,928.14-385.049Z" transform="translate(-911.071 386.716)" fill="#221e20"/>
    </g>
    <g id="Group_2651" data-name="Group 2651">
      <path id="Path_2521" data-name="Path 2521" d="M891.833-448.894a.828.828,0,0,1-.163-.016.843.843,0,0,1-.156-.047.845.845,0,0,1-.144-.077.838.838,0,0,1-.127-.1.839.839,0,0,1-.244-.589.839.839,0,0,1,.244-.589.839.839,0,0,1,.127-.1.848.848,0,0,1,.144-.077.84.84,0,0,1,.156-.047.823.823,0,0,1,.326,0,.848.848,0,0,1,.156.047.847.847,0,0,1,.144.077.816.816,0,0,1,.127.1.838.838,0,0,1,.244.589.84.84,0,0,1-.244.589.833.833,0,0,1-.127.1.859.859,0,0,1-.144.077.845.845,0,0,1-.156.047.825.825,0,0,1-.163.016Z" transform="translate(-891 450.56)" fill="#221e20"/>
    </g>
    <g id="Group_2652" data-name="Group 2652" transform="translate(0 6.65)">
      <path id="Path_2522" data-name="Path 2522" d="M891.833-416.971a.826.826,0,0,1-.163-.016.836.836,0,0,1-.156-.047.859.859,0,0,1-.144-.077.838.838,0,0,1-.127-.1A.84.84,0,0,1,891-417.8a.839.839,0,0,1,.244-.589.83.83,0,0,1,.127-.1.839.839,0,0,1,.144-.077.832.832,0,0,1,.156-.048.826.826,0,0,1,.326,0,.842.842,0,0,1,.156.048.855.855,0,0,1,.144.077.818.818,0,0,1,.127.1.839.839,0,0,1,.244.589.84.84,0,0,1-.244.589.836.836,0,0,1-.127.1.86.86,0,0,1-.144.077.834.834,0,0,1-.156.047.826.826,0,0,1-.164.016Z" transform="translate(-891 418.638)" fill="#221e20"/>
    </g>
    <g id="Group_2653" data-name="Group 2653" transform="translate(0 13.301)">
      <path id="Path_2523" data-name="Path 2523" d="M891.833-385.049a.826.826,0,0,1-.163-.016.832.832,0,0,1-.156-.048.845.845,0,0,1-.144-.077.841.841,0,0,1-.127-.1.839.839,0,0,1-.244-.589.839.839,0,0,1,.244-.589.836.836,0,0,1,.127-.1.842.842,0,0,1,.144-.077.837.837,0,0,1,.156-.048.826.826,0,0,1,.326,0,.839.839,0,0,1,.156.048.85.85,0,0,1,.144.077.834.834,0,0,1,.127.1.838.838,0,0,1,.244.589.839.839,0,0,1-.244.589.829.829,0,0,1-.127.1.848.848,0,0,1-.144.077.836.836,0,0,1-.156.048.826.826,0,0,1-.163.016Z" transform="translate(-891 386.716)" fill="#221e20"/>
    </g>
  </g>
</svg>
