<svg id="pay_black" xmlns="http://www.w3.org/2000/svg" width="40" height="40" viewBox="0 0 40 40">
  <circle id="Ellipse_292" data-name="Ellipse 292" cx="20" cy="20" r="20" fill="#aaa" opacity="0"/>
  <g id="Group_6349" data-name="Group 6349" transform="translate(0.073 -2.304)">
    <g id="Group_2644" data-name="Group 2644" transform="translate(7.928 13.303)">
      <path id="Path_2515" data-name="Path 2515" d="M270.4-427.825H252.583a3.337,3.337,0,0,1-3.333-3.333v-12.293a3.337,3.337,0,0,1,3.333-3.333H270.4a3.337,3.337,0,0,1,3.333,3.333v12.293a3.337,3.337,0,0,1-3.333,3.333Zm-17.812-17.293a1.668,1.668,0,0,0-1.667,1.667v12.293a1.669,1.669,0,0,0,1.667,1.667H270.4a1.669,1.669,0,0,0,1.667-1.667v-12.293a1.668,1.668,0,0,0-1.667-1.667Z" transform="translate(-249.25 446.785)" fill="#221e20"/>
    </g>
    <g id="Group_2645" data-name="Group 2645" transform="translate(7.979 18.838)">
      <path id="Path_2516" data-name="Path 2516" d="M256.42-412.327h-6.087a.833.833,0,0,1-.833-.833.833.833,0,0,1,.833-.833h6.087a2.281,2.281,0,0,0,2.278-2.278,2.28,2.28,0,0,0-2.278-2.278h-6.087a.833.833,0,0,1-.833-.833.833.833,0,0,1,.833-.833h6.087a3.949,3.949,0,0,1,3.945,3.945A3.949,3.949,0,0,1,256.42-412.327Z" transform="translate(-249.5 420.216)" fill="#221e20"/>
    </g>
    <g id="Group_2646" data-name="Group 2646" transform="translate(13.884 21.949)">
      <circle id="Ellipse_251" data-name="Ellipse 251" cx="0.833" cy="0.833" r="0.833" transform="translate(0 0)" fill="#221e20"/>
    </g>
  </g>
</svg>
