<?xml version="1.0" encoding="utf-8"?>
<!-- Generator: Adobe Illustrator 25.4.1, SVG Export Plug-In . SVG Version: 6.00 Build 0)  -->
<svg version="1.1" id="Layer_1" xmlns="http://www.w3.org/2000/svg" xmlns:xlink="http://www.w3.org/1999/xlink" x="0px" y="0px"
	 viewBox="0 0 19 15" style="enable-background:new 0 0 19 15;" xml:space="preserve">
<style type="text/css">
	.st0{fill:#1434CB;}
</style>
<path class="st0" d="M7.4,4.8l-2.3,5.5H3.6L2.5,5.9C2.4,5.6,2.4,5.5,2.2,5.4C1.8,5.2,1.3,5,0.8,4.9l0-0.2h2.4c0.3,0,0.6,0.2,0.7,0.6
	l0.6,3.2l1.5-3.7C5.9,4.8,7.4,4.8,7.4,4.8z M13.2,8.5c0-1.4-2-1.5-2-2.2c0-0.2,0.2-0.4,0.6-0.5c0.2,0,0.8,0,1.4,0.2l0.2-1.2
	c-0.3-0.1-0.8-0.2-1.3-0.2c-1.4,0-2.4,0.7-2.4,1.8c0,0.8,0.7,1.2,1.2,1.5c0.6,0.3,0.7,0.4,0.7,0.7c0,0.4-0.4,0.5-0.8,0.5
	c-0.7,0-1.1-0.2-1.4-0.3L9.2,10c0.3,0.2,0.9,0.3,1.6,0.3C12.3,10.3,13.2,9.6,13.2,8.5 M16.9,10.2h1.3l-1.1-5.5h-1.2
	c-0.3,0-0.5,0.2-0.6,0.4l-2.1,5.1h1.5l0.3-0.8h1.8L16.9,10.2z M15.4,8.3l0.7-2l0.4,2H15.4z M9.4,4.8l-1.2,5.5H6.8L8,4.8H9.4z"/>
</svg>
