<svg width="24" height="24" viewBox="0 0 24 24" fill="none" xmlns="http://www.w3.org/2000/svg">
<g clip-path="url(#clip0_15158_154)">
<path d="M14.1099 24H4.82995C3.29995 24 2.06995 22.76 2.06995 21.24V2.76C2.06995 1.23 3.30995 0 4.82995 0H14.1099C15.6399 0 16.8699 1.24 16.8699 2.76V5C16.8699 5.42 16.5299 5.76 16.1099 5.76C15.6899 5.76 15.3499 5.42 15.3499 5V2.76C15.3499 2.07 14.7899 1.51 14.0999 1.51H4.82995C4.13995 1.51 3.57995 2.07 3.57995 2.76V21.23C3.57995 21.92 4.13995 22.48 4.82995 22.48H14.1099C14.7999 22.48 15.3599 21.92 15.3599 21.23V18.09C15.3599 17.67 15.6999 17.33 16.1199 17.33C16.5399 17.33 16.8799 17.67 16.8799 18.09V21.23C16.8799 22.76 15.6399 23.99 14.1199 23.99L14.1099 24Z" fill="#ED1C24"/>
<path d="M9.46998 21C8.84998 21 8.35998 20.5 8.34998 19.88C8.34998 19.26 8.84998 18.77 9.46998 18.76C10.09 18.76 10.58 19.26 10.59 19.88C10.59 20.5 10.09 20.99 9.46998 21ZM9.46998 19.48C9.24998 19.48 9.06997 19.66 9.06997 19.88C9.06997 20.1 9.24998 20.28 9.46998 20.28C9.68998 20.28 9.86998 20.1 9.86998 19.88C9.86998 19.66 9.68998 19.48 9.46998 19.48Z" fill="#ED1C24"/>
<path d="M19.63 16.5001H9.46996C9.04996 16.5001 8.70996 16.1601 8.70996 15.7401V7.33007C8.70996 6.91007 9.04996 6.57007 9.46996 6.57007H19.63C20.82 6.57007 21.79 7.54007 21.79 8.73007V14.3301C21.79 15.5201 20.82 16.4901 19.63 16.4901V16.5001ZM10.22 14.9801H19.62C19.98 14.9801 20.27 14.6901 20.27 14.3301V8.73007C20.27 8.37007 19.98 8.08007 19.62 8.08007H10.22V14.9701V14.9801Z" fill="black"/>
<path d="M18.04 13.5H9.46996C9.04996 13.5 8.70996 13.16 8.70996 12.74C8.70996 12.32 9.04996 11.98 9.46996 11.98H18.04C18.46 11.98 18.8 12.32 18.8 12.74C18.8 13.16 18.46 13.5 18.04 13.5Z" fill="black"/>
</g>
<defs>
<clipPath id="clip0_15158_154">
<rect width="24" height="24" fill="white"/>
</clipPath>
</defs>
</svg>
