<svg width="24" height="24" viewBox="0 0 24 24" fill="none" xmlns="http://www.w3.org/2000/svg">
<g clip-path="url(#clip0_88_487)">
<path d="M21.2719 5.39839V7.58444C21.3649 8.78444 20.4719 9.8263 19.2719 9.91932C19.1603 9.91932 19.0486 9.91932 18.937 9.91932H15.8486V3.59374C15.8486 2.58909 16.6672 1.77979 17.6719 1.77979C19.6626 1.77979 21.2719 3.40769 21.2719 5.39839Z" stroke="#ED1C24" stroke-width="1.5" stroke-linecap="round" stroke-linejoin="round"/>
<path d="M3.19775 6.30072V18.9519C3.19775 19.4449 3.59775 19.8542 4.09078 19.8635C4.28613 19.8635 4.48147 19.7984 4.63961 19.6775L6.1838 18.524C6.54659 18.2542 7.05822 18.2914 7.3745 18.617L8.87217 20.124C9.22566 20.4775 9.8024 20.4775 10.1559 20.124L11.6722 18.6077C11.9885 18.2914 12.4908 18.2542 12.8443 18.5333L14.3885 19.6868C14.7885 19.9844 15.3559 19.9007 15.6536 19.5007C15.7652 19.3426 15.8303 19.1565 15.8303 18.9612V3.58444C15.8303 2.58909 16.6396 1.77979 17.635 1.77979H6.81636C4.10008 1.77979 3.19775 3.39839 3.19775 5.39839V6.30072Z" stroke="#ED1C24" stroke-width="1.5" stroke-linecap="round" stroke-linejoin="round"/>
<path d="M7.03955 9.00757H12.007" stroke="#080808" stroke-width="1.5" stroke-linecap="round" stroke-linejoin="round"/>
</g>
<defs>
<clipPath id="clip0_88_487">
<rect width="19.4791" height="20" fill="white" transform="translate(2.5 1.08203)"/>
</clipPath>
</defs>
</svg>
