<svg width="24" height="24" viewBox="0 0 24 24" fill="none" xmlns="http://www.w3.org/2000/svg">
<path d="M4.8418 16.1504C4.88913 16.1504 4.93497 16.1574 4.97949 16.168C5.20797 16.2186 5.38351 16.3921 5.43066 16.6211C5.43829 16.6562 5.44153 16.6924 5.44238 16.7295C5.4425 16.7345 5.44434 16.74 5.44434 16.7451C5.44429 16.8057 5.43172 16.863 5.41504 16.918C5.3863 17.0133 5.33773 17.0993 5.26953 17.168C5.1594 17.2789 5.00699 17.3467 4.8418 17.3467C4.76774 17.3467 4.69731 17.3314 4.63184 17.3057C4.40491 17.2211 4.2492 17.0042 4.24902 16.7432C4.24902 16.4072 4.5154 16.1504 4.8418 16.1504Z" fill="#ED1C24"/>
<path d="M7.7168 16.1504C8.0482 16.1504 8.30077 16.4092 8.30762 16.7295C8.30774 16.7345 8.30957 16.74 8.30957 16.7451C8.30933 17.0809 8.05264 17.3467 7.7168 17.3467C7.38105 17.3466 7.11451 17.0713 7.11426 16.7451V16.7432C7.11426 16.4072 7.3808 16.1504 7.7168 16.1504Z" fill="#ED1C24"/>
<path fill-rule="evenodd" clip-rule="evenodd" d="M15.752 6.5498C17.4439 6.54982 18.8291 7.9252 18.8291 9.61719C18.8291 11.3091 17.4439 12.6943 15.752 12.6943V12.8096L15.7422 12.6943C14.919 12.6847 14.1458 12.3701 13.5723 11.7773C12.9891 11.1942 12.675 10.4282 12.6846 9.60742C12.6846 7.91547 14.0696 6.5498 15.752 6.5498ZM15.752 7.74512C14.7296 7.74512 13.8895 8.57559 13.8799 9.61719C13.8799 10.6492 14.72 11.499 15.752 11.499C16.7839 11.499 17.6338 10.6491 17.6338 9.61719C17.6338 8.5852 16.7743 7.74514 15.752 7.74512Z" fill="#ED1C24"/>
<path d="M7.97656 11.2227L8.09863 11.2344C8.37457 11.2916 8.57792 11.5388 8.57812 11.8242C8.57812 12.1505 8.30999 12.4168 7.97656 12.417H4.58496C4.25857 12.417 3.99219 12.1602 3.99219 11.8242C3.99242 11.4884 4.26111 11.2227 4.58496 11.2227H7.97656Z" fill="#ED1C24"/>
<path d="M7.97656 7.97266C8.31238 7.97285 8.57811 8.22957 8.57812 8.56543C8.57812 8.9013 8.30999 9.16777 7.97656 9.16797H4.58496C4.25857 9.16795 3.99219 8.89182 3.99219 8.56543C3.9922 8.23905 4.26098 7.97267 4.58496 7.97266H7.97656Z" fill="#ED1C24"/>
<path fill-rule="evenodd" clip-rule="evenodd" d="M20.3066 3.38672C21.9986 3.38672 23.374 4.75234 23.374 6.44434V17.5469C23.3643 19.2292 21.989 20.6047 20.3066 20.6143H3.7041C2.01215 20.6143 0.636804 19.2388 0.636719 17.5469V6.44434C0.636719 4.75234 2.0121 3.38672 3.7041 3.38672H20.3066ZM3.7041 4.58203C2.6817 4.58203 1.8418 5.42194 1.8418 6.44434V17.5566C1.83237 18.5885 2.67221 19.4287 3.7041 19.4287H10.2393L10.249 19.332C10.5635 16.9443 12.351 15.0436 14.71 14.5947C17.7196 14.0211 20.6334 15.9992 21.207 19.0088L21.2451 19.1904L21.3896 19.0752C21.8863 18.732 22.1814 18.1587 22.1719 17.5469H22.1699V6.44434C22.1699 5.42194 21.329 4.58203 20.3066 4.58203H3.7041ZM16.5029 15.7393C15.3678 15.5401 14.2014 15.7972 13.2559 16.4668C12.3008 17.1243 11.6626 18.1274 11.4609 19.2744L11.4414 19.4092H20.0576L20.0381 19.2744C19.7212 17.477 18.298 16.0536 16.5029 15.7393Z" fill="#ED1C24"/>
<path d="M20.3066 3.38672C21.9986 3.38672 23.374 4.75234 23.374 6.44434V17.5469C23.3702 18.2125 23.15 18.8281 22.7842 19.332C21.6043 19.7643 20.3297 20 19 20C17.7547 20 16.5585 19.7906 15.4424 19.4092H20.0576L20.0381 19.2744C19.7212 17.477 18.298 16.0536 16.5029 15.7393C15.3678 15.5401 14.2014 15.7972 13.2559 16.4668C12.8099 16.7739 12.4333 17.1565 12.1377 17.5938C11.8271 17.3454 11.5288 17.0827 11.2471 16.8027C12.0562 15.6755 13.2775 14.8673 14.71 14.5947C17.7196 14.0211 20.6334 15.9992 21.207 19.0088L21.2451 19.1904L21.3896 19.0752C21.8863 18.732 22.1814 18.1587 22.1719 17.5469H22.1699V6.44434C22.1699 5.42194 21.329 4.58203 20.3066 4.58203H8.92578C9.1069 4.16962 9.3126 3.7708 9.54102 3.38672H20.3066ZM15.752 6.5498C17.4439 6.54982 18.8291 7.9252 18.8291 9.61719C18.8291 11.3091 17.4439 12.6943 15.752 12.6943V12.8096L15.7422 12.6943C14.919 12.6847 14.1458 12.3701 13.5723 11.7773C12.9891 11.1942 12.675 10.4282 12.6846 9.60742C12.6846 7.91547 14.0696 6.5498 15.752 6.5498ZM8.23926 11.2852C8.44038 11.3842 8.57795 11.5904 8.57812 11.8242C8.57812 11.9525 8.53546 12.0707 8.46484 12.168C8.37791 11.8785 8.30244 11.5841 8.23926 11.2852ZM15.752 7.74512C14.7296 7.74512 13.8895 8.57559 13.8799 9.61719C13.8799 10.6492 14.72 11.499 15.752 11.499C16.7839 11.499 17.6338 10.6491 17.6338 9.61719C17.6338 8.5852 16.7743 7.74514 15.752 7.74512ZM8.04785 7.97949C8.34907 8.0132 8.57811 8.25383 8.57812 8.56543C8.57812 8.89204 8.32448 9.1507 8.00391 9.16504C8.0031 9.11011 8 9.05512 8 9C8 8.65588 8.01693 8.31555 8.04785 7.97949Z" fill="#080808"/>
</svg>
